<?xml version="1.0" encoding="iso-8859-1"?>
<!-- Generator: Adobe Illustrator 19.0.0, SVG Export Plug-In . SVG Version: 6.00 Build 0)  -->
<svg version="1.1" id="Capa_1" xmlns="http://www.w3.org/2000/svg" xmlns:xlink="http://www.w3.org/1999/xlink" x="0px" y="0px"
	 viewBox="0 0 512.001 512.001" style="enable-background:new 0 0 512.001 512.001;" xml:space="preserve">
<path style="fill:#7C7A72;" d="M87.966,284.839H69.568c-2.761,0-5-2.239-5-5v-15.856h28.398v15.856
	C92.966,282.6,90.727,284.839,87.966,284.839z"/>
<path style="fill:#56544C;" d="M78.767,284.839h-9.199c-2.761,0-5-2.239-5-5v-15.856h14.199V284.839z"/>
<path style="fill:#7C7A72;" d="M499.476,214.783h-17.502v-46.7h17.502c2.767,0,5.009,2.243,5.009,5.009v36.681
	C504.486,212.541,502.243,214.783,499.476,214.783z"/>
<rect x="481.97" y="168.08" style="fill:#56544C;" width="11.256" height="46.7"/>
<path style="fill:#F9C638;" d="M435.34,82.626H74.869c-25.756,0-46.635,20.879-46.635,46.635v134.722h77.007
	c14.93,0,27.033-12.103,27.033-27.033v-14.27c0-9.464,3.952-18.499,10.903-24.923l0,0c6.271-5.795,14.495-9.014,23.034-9.014h122.41
	c2.767,0,5.009,2.243,5.009,5.009v174.104H7.514v85.014c0,2.767,2.243,5.009,5.009,5.009h464.441c2.767,0,5.009-2.243,5.009-5.009
	V129.26C481.974,103.505,461.095,82.626,435.34,82.626z"/>
<path style="fill:#F4F4F4;" d="M453.884,367.857H325.819v-169.61c0-2.767,2.243-5.009,5.009-5.009h118.047
	c2.767,0,5.009,2.243,5.009,5.009V367.857z"/>
<path style="fill:#7C7A72;" d="M293.629,335.292H40.079c-17.985,0-32.565,14.58-32.565,32.565l0,0h286.115V335.292z"/>
<path style="fill:#56544C;" d="M97.13,335.292c-17.984,0-32.562,14.578-32.562,32.562H7.51c0-17.984,14.588-32.562,32.572-32.562
	H97.13z"/>
<g>
	<path style="fill:#EAAD26;" d="M7.51,367.854h57.058v90.031H12.519c-2.767,0-5.009-2.243-5.009-5.009V367.854z"/>
	<path style="fill:#EAAD26;" d="M131.925,82.623c-25.759,0-46.638,20.88-46.638,46.638v134.725H28.229V129.262
		c0-25.759,20.88-46.638,46.638-46.638L131.925,82.623L131.925,82.623z"/>
</g>
<path style="fill:#DDDDDD;" d="M359.449,367.857h-33.63v-169.61c0-2.767,2.243-5.009,5.009-5.009h28.62v174.619H359.449z"/>
<circle cx="357.9" cy="234.46" r="9.215"/>
<circle cx="389.85" cy="234.46" r="9.215"/>
<circle cx="421.8" cy="234.46" r="9.215"/>
<circle cx="357.9" cy="274.41" r="9.215"/>
<circle cx="389.85" cy="274.41" r="9.215"/>
<circle cx="421.8" cy="274.41" r="9.215"/>
<circle cx="357.9" cy="314.36" r="9.215"/>
<circle cx="389.85" cy="314.36" r="9.215"/>
<circle cx="421.8" cy="314.36" r="9.215"/>
<circle style="fill:#F35856;" cx="355.11" cy="140.69" r="21.866"/>
<path style="fill:#E53838;" d="M373.433,152.606c-3.897,5.991-10.65,9.949-18.325,9.949c-12.073,0-21.861-9.799-21.861-21.871
	c0-9.879,6.552-18.225,15.539-20.93c-2.244,3.426-3.537,7.524-3.537,11.913c0,12.073,9.789,21.871,21.871,21.871
	C369.315,153.538,371.429,153.217,373.433,152.606z"/>
<circle style="fill:#F35856;" cx="430.22" cy="140.69" r="21.866"/>
<path style="fill:#E53838;" d="M448.536,152.602c-3.897,5.991-10.65,9.949-18.325,9.949c-12.073,0-21.861-9.799-21.861-21.871
	c0-9.879,6.552-18.225,15.539-20.93c-2.244,3.426-3.537,7.524-3.537,11.913c0,12.073,9.789,21.871,21.871,21.871
	C444.418,153.534,446.532,153.213,448.536,152.602z"/>
<path d="M355.11,170.065c16.201,0,29.381-13.18,29.381-29.38c0-10.167-5.193-19.142-13.063-24.419
	c-0.051-0.036-0.097-0.076-0.149-0.11c-0.101-0.067-0.206-0.122-0.309-0.183c-4.579-2.949-10.021-4.668-15.86-4.668
	c-16.2,0-29.38,13.18-29.38,29.38S338.91,170.065,355.11,170.065z M355.11,126.333c0.124,0,0.244,0.016,0.367,0.019l-3.832,5.764
	c-2.297,3.456-1.358,8.12,2.098,10.418c1.28,0.85,2.724,1.257,4.153,1.257c2.431,0,4.818-1.178,6.265-3.355l3.907-5.878
	c0.884,1.862,1.394,3.934,1.394,6.128c0,7.913-6.438,14.352-14.352,14.352c-7.913,0-14.351-6.438-14.351-14.352
	C340.759,132.771,347.197,126.333,355.11,126.333z"/>
<path d="M459.596,140.685c0-16.201-13.18-29.38-29.38-29.38c-16.201,0-29.381,13.18-29.381,29.38s13.18,29.38,29.381,29.38
	C446.416,170.065,459.596,156.885,459.596,140.685z M416.984,146.239l8.955,0.919c0.261,0.026,0.52,0.04,0.776,0.04
	c3.805,0,7.069-2.88,7.466-6.748c0.424-4.128-2.58-7.818-6.708-8.242l-8.155-0.836c2.634-3.078,6.539-5.038,10.899-5.038
	c7.913,0,14.351,6.438,14.351,14.352c0,7.913-6.438,14.352-14.351,14.352C424.271,155.036,419.159,151.402,416.984,146.239z"/>
<path d="M499.476,160.569h-9.988V129.26c0-29.858-24.291-54.149-54.149-54.149h-3.267V61.634h6.611c4.151,0,7.514-3.364,7.514-7.514
	s-3.364-7.514-7.514-7.514h-28.251c-4.15,0-7.514,3.364-7.514,7.514s3.364,7.514,7.514,7.514h6.611v13.478h-50.081V54.119
	c0-4.15-3.364-7.514-7.514-7.514s-7.514,3.364-7.514,7.514v20.992H240.236c-4.15,0-7.514,3.364-7.514,7.514s3.364,7.514,7.514,7.514
	h195.103c21.571,0,39.121,17.549,39.121,39.12v231.082h-13.062v-52.409c0-4.15-3.364-7.514-7.514-7.514s-7.514,3.364-7.514,7.514
	v52.409H333.333V200.752H446.37v55.083c0,4.15,3.364,7.514,7.514,7.514s7.514-3.364,7.514-7.514v-57.588
	c0-6.906-5.618-12.524-12.524-12.524H330.829c-6.906,0-12.524,5.618-12.524,12.524v162.096h-17.161V193.754
	c0-6.906-5.618-12.524-12.524-12.524h-60.604v-16.546c0-4.15-3.364-7.514-7.514-7.514c-4.15,0-7.514,3.364-7.514,7.514v16.546
	h-9.236v-16.546c0-4.15-3.364-7.514-7.514-7.514c-4.15,0-7.514,3.364-7.514,7.514v16.546h-9.236v-16.546
	c0-4.15-3.364-7.514-7.514-7.514c-4.15,0-7.514,3.364-7.514,7.514v16.586c-9.82,0.411-19.131,4.266-26.382,10.969
	c-8.463,7.821-13.317,18.917-13.317,30.441v14.269c0,10.762-8.756,19.518-19.519,19.518H92.967h-0.001H64.568h-0.001H35.748V129.261
	c0-21.571,17.549-39.12,39.121-39.12h113.714c4.15,0,7.514-3.364,7.514-7.514s-3.364-7.514-7.514-7.514H74.869
	c-29.858,0-54.149,24.291-54.149,54.149v134.722c0,4.15,3.364,7.514,7.514,7.514h28.82v15.856c0,2.761,2.239,5,5,5h9.199v19.358
	c0,4.15,3.364,7.514,7.514,7.514s7.514-3.364,7.514-7.514v-19.358h9.199c2.761,0,5-2.239,5-5v-15.856h4.76
	c19.05,0,34.547-15.498,34.547-34.547V222.68c0-7.346,3.094-14.418,8.489-19.404c4.896-4.526,11.266-7.018,17.933-7.018h119.905
	v131.52H40.079c-22.1,0-40.079,17.98-40.079,40.079v85.014c0,6.906,5.618,12.524,12.524,12.524h464.441
	c6.906,0,12.524-5.618,12.524-12.524v-85.013v-0.001v-0.001V222.298h9.988c6.906,0,12.524-5.618,12.524-12.524v-36.681
	C512,166.188,506.382,160.569,499.476,160.569z M85.452,277.324h-13.37v-5.828h13.37V277.324z M40.079,342.807h246.036v17.536H16.18
	C19.379,350.19,28.883,342.807,40.079,342.807z M474.46,450.366H15.028v-74.995h278.601h32.19h128.065h20.576L474.46,450.366
	L474.46,450.366z M496.972,207.269h-7.483v-31.671h7.483V207.269z"/>
<g>
</g>
<g>
</g>
<g>
</g>
<g>
</g>
<g>
</g>
<g>
</g>
<g>
</g>
<g>
</g>
<g>
</g>
<g>
</g>
<g>
</g>
<g>
</g>
<g>
</g>
<g>
</g>
<g>
</g>
</svg>
